<?xml version="1.0" encoding="UTF-8"?>
<svg version="1.1" xmlns="http://www.w3.org/2000/svg" width="580" height="386">
<path d="M0 0 C191.4 0 382.8 0 580 0 C580 127.38 580 254.76 580 386 C388.6 386 197.2 386 0 386 C0 258.62 0 131.24 0 0 Z " fill="#FEFEFE" transform="translate(0,0)"/>
<path d="M0 0 C6.93 0 13.86 0 21 0 C20.67 3.3 20.34 6.6 20 10 C19.92322 11.77197383 19.87239556 13.54570035 19.87060547 15.31933594 C19.86587723 16.69191559 19.86587723 16.69191559 19.86105347 18.09222412 C19.8630777 19.04663391 19.86510193 20.0010437 19.8671875 20.984375 C19.86623077 22.00243225 19.86527405 23.0204895 19.86428833 24.06939697 C19.863612 26.2106533 19.86542784 28.35191175 19.86962891 30.49316406 C19.8749625 33.72726176 19.86967663 36.96121918 19.86328125 40.1953125 C19.85681617 54.62995087 19.97605127 68.70895982 23.0625 82.875 C24.0215625 87.391875 24.0215625 87.391875 25 92 C16.75 92 8.5 92 0 92 C-0.59941406 89.15761719 -0.59941406 89.15761719 -1.2109375 86.2578125 C-2.77194362 79.51171004 -4.98625714 73.26549787 -7.625 66.875 C-8.05796387 65.80838135 -8.49092773 64.7417627 -8.93701172 63.64282227 C-12.93144141 53.92081858 -17.35005789 44.42343341 -22 35 C-22.39220769 56.06255871 -21.47209055 76.16745668 -18 97 C-25.26 97 -32.52 97 -40 97 C-39.67515625 94.58171875 -39.3503125 92.1634375 -39.015625 89.671875 C-37.84649533 80.18626546 -37.68717025 70.79615814 -37.75 61.25 C-37.75276947 60.42227081 -37.75553894 59.59454163 -37.75839233 58.74172974 C-37.82579052 41.53238108 -38.43034705 24.68576135 -43 8 C-43.33 6.68 -43.66 5.36 -44 4 C-35.75 4 -27.5 4 -19 4 C-18.34 6.97 -17.68 9.94 -17 13 C-16.0970015 15.85228567 -15.16325024 18.63694843 -14.125 21.4375 C-13.83544434 22.22374756 -13.54588867 23.00999512 -13.24755859 23.82006836 C-8.56791905 36.1552577 -2.89868286 48.20263429 3 60 C3.50781379 29.87055669 3.50781379 29.87055669 0 0 Z " fill="#2A2931" transform="translate(195,147)"/>
<path d="M0 0 C18.81 0 37.62 0 57 0 C57 6.93 57 13.86 57 21 C49.14732902 19.87818986 49.14732902 19.87818986 45.9140625 19.0625 C45.21023437 18.88976562 44.50640625 18.71703125 43.78125 18.5390625 C42.35110176 18.18152544 40.9214071 17.82216883 39.4921875 17.4609375 C34.24351383 16.1775027 29.47134971 15.60792775 24 15 C23.67 23.91 23.34 32.82 23 42 C26.2175 41.360625 29.435 40.72125 32.75 40.0625 C34.26158691 39.76291382 34.26158691 39.76291382 35.80371094 39.45727539 C36.60583008 39.29735107 37.40794922 39.13742676 38.234375 38.97265625 C39.05131836 38.81031494 39.86826172 38.64797363 40.70996094 38.48071289 C42.81800809 38.03820278 44.91032161 37.5224196 47 37 C47 44.59 47 52.18 47 60 C39.08 59.01 31.16 58.02 23 57 C23.2475 60.6196875 23.2475 60.6196875 23.5 64.3125 C23.9295988 70.88287414 24.12558553 77.41373673 24 84 C37.55840472 81.93210982 37.55840472 81.93210982 50.8359375 78.55078125 C53 78 53 78 57 78 C57 84.93 57 91.86 57 99 C39.18 99 21.36 99 3 99 C3.99 92.4 4.98 85.8 6 79 C6.26576246 72.76239881 6.4371605 66.60661018 6.375 60.375 C6.3713443 59.5634848 6.3676886 58.7519696 6.36392212 57.91586304 C6.27307755 40.588267 5.63156187 23.08729215 0.59692383 6.39916992 C0 4 0 4 0 0 Z " fill="#2A2931" transform="translate(89,145)"/>
<path d="M0 0 C-0.19335938 0.680625 -0.38671875 1.36125 -0.5859375 2.0625 C-5.0201222 18.56995986 -5.29428953 34.6849589 -5.20581055 51.67407227 C-5.18744968 55.3224991 -5.18530226 58.97067215 -5.18554688 62.61914062 C-5.18063348 64.97135633 -5.17480594 67.32357035 -5.16796875 69.67578125 C-5.16685593 70.74999832 -5.1657431 71.82421539 -5.16459656 72.9309845 C-5.12275067 79.67794925 -4.69465524 86.28800204 -4 93 C-10.93 93 -17.86 93 -25 93 C-24.67 90.69 -24.34 88.38 -24 86 C-23.7343268 83.5132121 -23.48369301 81.02478331 -23.24609375 78.53515625 C-23.18092056 77.85698349 -23.11574738 77.17881073 -23.04859924 76.48008728 C-22.84338133 74.34103356 -22.64040176 72.20177453 -22.4375 70.0625 C-22.29767479 68.60089722 -22.15770219 67.13930853 -22.01757812 65.67773438 C-21.6764089 62.11867314 -21.33827579 58.55934213 -21 55 C-27.6 55 -34.2 55 -41 55 C-40.71708187 59.33406489 -40.42397883 63.6670381 -40.125 68 C-40.04636719 69.22074219 -39.96773438 70.44148438 -39.88671875 71.69921875 C-39.44012564 78.05458219 -38.68985158 83.86541277 -37 90 C-37 91.32 -37 92.64 -37 94 C-39.18652739 94.33965474 -41.37428025 94.67142477 -43.5625 95 C-44.78066406 95.185625 -45.99882812 95.37125 -47.25390625 95.5625 C-50.87627848 95.98555077 -54.35712046 96.07501425 -58 96 C-57.93016907 95.33713486 -57.86033813 94.67426971 -57.78839111 93.99131775 C-57.11697386 87.20999611 -56.82659373 80.50364987 -56.796875 73.69140625 C-56.79117493 72.6446019 -56.78547485 71.59779755 -56.77960205 70.51927185 C-56.77021752 68.31502267 -56.76364438 66.11075988 -56.75976562 63.90649414 C-56.75011569 60.60211469 -56.71905105 57.2983733 -56.6875 53.99414062 C-56.60317567 37.07902819 -58.68374217 21.58128917 -62 5 C-54.08 5 -46.16 5 -38 5 C-38.309375 7.371875 -38.61875 9.74375 -38.9375 12.1875 C-40.20526248 22.43823592 -40.59001757 32.68210878 -41 43 C-34.4 43 -27.8 43 -21 43 C-21.26407599 38.44661207 -21.52978946 33.893378 -21.79956055 29.34033203 C-21.89067273 27.79448888 -21.98085974 26.24859089 -22.07006836 24.70263672 C-22.19916829 22.46827035 -22.33170019 20.23412864 -22.46484375 18 C-22.50343002 17.31945557 -22.5420163 16.63891113 -22.58177185 15.93774414 C-22.86526097 11.25561975 -23.38059906 6.64664152 -24 2 C-22.35451172 1.90912109 -22.35451172 1.90912109 -20.67578125 1.81640625 C-19.22134346 1.73195502 -17.76691695 1.64730934 -16.3125 1.5625 C-15.59126953 1.52318359 -14.87003906 1.48386719 -14.12695312 1.44335938 C-9.37972247 1.16156029 -4.71964105 0 0 0 Z " fill="#2B2A31" transform="translate(488,146)"/>
<path d="M0 0 C10.42059571 5.95462612 13.04530614 14.94138185 16.36328125 26.0625 C17.0625 28.75 17.0625 28.75 17.0625 30.75 C14.33422635 31.25534727 11.60505306 31.75443845 8.875 32.25 C8.10607422 32.39308594 7.33714844 32.53617188 6.54492188 32.68359375 C5.41860352 32.88662109 5.41860352 32.88662109 4.26953125 33.09375 C3.5835083 33.21943359 2.89748535 33.34511719 2.19067383 33.47460938 C-0.20403574 33.78449034 -2.52544689 33.79422404 -4.9375 33.75 C-4.91393433 32.83504761 -4.91393433 32.83504761 -4.88989258 31.90161133 C-4.82730187 29.1220029 -4.78843378 26.34254308 -4.75 23.5625 C-4.72486328 22.60279297 -4.69972656 21.64308594 -4.67382812 20.65429688 C-4.58432499 13.72008051 -4.58432499 13.72008051 -7.9375 7.75 C-10.78284204 7.45371263 -10.78284204 7.45371263 -13.9375 8.75 C-23.80987494 21.39212457 -23.36052614 41.81989303 -21.69433594 56.95947266 C-20.51294074 64.93486497 -18.50544362 75.35191911 -11.9375 80.75 C-9.33101495 80.91210219 -9.33101495 80.91210219 -6.9375 79.75 C-4.9187969 75.87550668 -4.57438084 72.25853392 -4.3125 67.9375 C-4.23773438 66.77605469 -4.16296875 65.61460937 -4.0859375 64.41796875 C-4.03695312 63.53753906 -3.98796875 62.65710938 -3.9375 61.75 C-7.5675 62.74 -11.1975 63.73 -14.9375 64.75 C-14.9375 59.14 -14.9375 53.53 -14.9375 47.75 C-4.7075 47.75 5.5225 47.75 16.0625 47.75 C16.39130802 60.57351268 16.47036984 72.22772502 8.0625 82.75 C1.76786556 88.72990272 -4.08304851 89.15018802 -12.4921875 88.9921875 C-19.67519239 88.48725972 -24.37957009 86.27157451 -29.2734375 80.953125 C-40.65444345 65.8853143 -41.79071039 46.99282792 -39.375 28.875 C-36.93802939 17.99444107 -31.17380057 7.98845237 -22.140625 1.44921875 C-15.61643387 -2.47338377 -7.06237949 -2.7910277 0 0 Z " fill="#29282F" transform="translate(263.9375,151.25)"/>
<path d="M0 0 C6.88720288 5.16540216 9.44414181 14.07567257 12 22 C9.64741656 22.50866669 7.29338596 23.0070625 4.9375 23.5 C4.28072266 23.64308594 3.62394531 23.78617188 2.94726562 23.93359375 C-1.43139988 24.83952455 -5.50418704 25.14031146 -10 25 C-9.96519531 23.97519531 -9.93039062 22.95039063 -9.89453125 21.89453125 C-9.86637965 20.53387064 -9.83908096 19.1731922 -9.8125 17.8125 C-9.78736328 17.13896484 -9.76222656 16.46542969 -9.73632812 15.77148438 C-9.67076522 11.29135252 -10.33256351 8.60559001 -13 5 C-16.43793339 5.18129815 -16.43793339 5.18129815 -20 6 C-22.41797732 9.27596928 -22.26817824 12.53714315 -22.25 16.5 C-22.25515625 17.6240625 -22.2603125 18.748125 -22.265625 19.90625 C-22.00447666 22.94786004 -21.75675234 24.53837789 -20 27 C-17.95517193 28.56611164 -17.95517193 28.56611164 -15.5 29.875 C-14.60410156 30.390625 -13.70820313 30.90625 -12.78515625 31.4375 C-11.00162616 32.43807789 -9.21779954 33.4381275 -7.43359375 34.4375 C0.57322855 39.04862771 8.53442788 44.09156614 12 53 C12.42720493 55.80483106 12.47728631 58.5414004 12.4375 61.375 C12.42920166 62.13014893 12.42090332 62.88529785 12.41235352 63.66333008 C12.17914253 71.32775532 10.3494633 76.0077453 4.75 81.3125 C-1.65786927 86.28435628 -7.88966321 87.65736543 -15.96875 87.40234375 C-21.92330762 86.61198365 -26.72979483 84.48548325 -30.8125 80.015625 C-34.53046209 74.77329845 -36.78965379 68.99627253 -39 63 C-39.33 62.34 -39.66 61.68 -40 61 C-32.21859398 59.21892262 -25.00675373 57.86195252 -17 58 C-17.03480469 58.94101563 -17.06960938 59.88203125 -17.10546875 60.8515625 C-17.13253906 62.09679687 -17.15960938 63.34203125 -17.1875 64.625 C-17.22230469 65.85476562 -17.25710938 67.08453125 -17.29296875 68.3515625 C-16.9787947 72.26407664 -15.96906533 74.64070218 -14 78 C-11.12133744 78.13478935 -11.12133744 78.13478935 -8 77 C-5.09233151 73.46674223 -3.76364715 69.41392917 -3.5625 64.875 C-4.32926659 58.08363881 -6.93300278 54.74623557 -11.97387695 50.51171875 C-15.90709788 47.5770876 -20.34819721 45.606022 -24.77148438 43.52148438 C-31.32818324 40.25788899 -35.23003312 36.06794259 -38.875 29.75 C-41.1943371 22.01887635 -40.8146901 15.13820956 -37.12890625 7.93359375 C-33.70198012 2.06394519 -29.71845677 -1.50631662 -23.13671875 -3.58984375 C-14.84944354 -5.18063698 -7.19891067 -4.48262067 0 0 Z " fill="#2B2A31" transform="translate(409,154)"/>
<path d="M0 0 C11.88 1.485 11.88 1.485 24 3 C23.67402832 5.16957275 23.34805664 7.33914551 23.01220703 9.57446289 C21.93309785 17.33394979 21.74034435 24.97414089 21.8046875 32.80859375 C21.80843295 34.15478807 21.81127264 35.50098517 21.81326294 36.84718323 C21.82077916 40.33395357 21.84031895 43.82054842 21.8626709 47.30725098 C21.88339353 50.88775256 21.8923202 54.46828343 21.90234375 58.04882812 C21.92358064 65.03262267 21.95756463 72.01630284 22 79 C24.98019177 78.23297201 27.95911331 77.46148135 30.9375 76.6875 C31.76830078 76.47416016 32.59910156 76.26082031 33.45507812 76.04101562 C39.05381514 74.58142271 44.53539284 72.90084068 50 71 C50.78155828 75.98243406 51.05669783 80.75256755 51.03125 85.80078125 C51.02673828 86.96391846 51.02222656 88.12705566 51.01757812 89.32543945 C51.01177734 90.20804443 51.00597656 91.09064941 51 92 C50.14994385 91.98952637 49.2998877 91.97905273 48.42407227 91.96826172 C25.63651612 91.6470039 25.63651612 91.6470039 3 94 C3.21112427 93.00782471 3.21112427 93.00782471 3.42651367 91.99560547 C5.36748539 81.47209995 5.33755232 71.01787765 5.31567383 60.34765625 C5.31254068 57.16630882 5.33594334 53.9859188 5.36132812 50.8046875 C5.41476356 33.50266142 3.75473823 16.89632205 0 0 Z " fill="#2A2931" transform="translate(285,148)"/>
<path d="M0 0 C7.59 0 15.18 0 23 0 C22.84015625 1.72089844 22.6803125 3.44179687 22.515625 5.21484375 C21.86339542 13.75280646 21.77828892 22.27854597 21.75976562 30.83862305 C21.75000416 33.56133963 21.71884708 36.28331689 21.6875 39.00585938 C21.63691706 47.60995806 21.78763595 55.49303442 24.35253906 63.80053711 C25 66 25 66 25 69 C17.74 69 10.48 69 3 69 C3.32355469 66.99550781 3.64710938 64.99101562 3.98046875 62.92578125 C5.06100129 55.32574907 5.34527331 47.86737958 5.3125 40.1875 C5.30976074 38.87958496 5.30702148 37.57166992 5.30419922 36.22412109 C5.16693512 23.49642607 3.08542193 12.34168772 0 0 Z " fill="#2B2A31" transform="translate(339,175)"/>
<path d="M0 0 C3.78171013 2.03630545 7.09528802 4.08475871 9 8 C9.73940087 12.77415625 9.45664981 16.10300929 7.25 20.4375 C4.64553443 23.40369689 2.74420306 24.75974305 -1.18359375 25.30078125 C-5.90921728 25.32535122 -9.29643664 25.26785002 -13 22 C-15.88868756 17.6171637 -16.56796579 14.20635305 -16 9 C-14.48007896 5.81540354 -12.71704041 3.26420034 -10 1 C-6.38069302 -0.20643566 -3.80768995 -0.32268559 0 0 Z " fill="#2A2830" transform="translate(355,145)"/>
<path d="M0 0 C0.33 0 0.66 0 1 0 C1.33 5.28 1.66 10.56 2 16 C5.3 15.34 8.6 14.68 12 14 C12.58295155 28.55219807 12.58295155 28.55219807 9 33 C6.625 34.1875 6.625 34.1875 4 34 C-1.08069717 30.37093059 -2.45192531 25.77696163 -4 20 C-3.34 20 -2.68 20 -2 20 C-1.13580777 17.40742331 -0.82419068 15.65962293 -0.68359375 12.98828125 C-0.64169922 12.23095703 -0.59980469 11.47363281 -0.55664062 10.69335938 C-0.49766602 9.51483398 -0.49766602 9.51483398 -0.4375 8.3125 C-0.39431641 7.51521484 -0.35113281 6.71792969 -0.30664062 5.89648438 C-0.20072632 3.93118553 -0.09987449 1.96561504 0 0 Z " fill="#F1F1F2" transform="translate(248,199)"/>
<path d="M0 0 C0 0.33 0 0.66 0 1 C-1.98 1 -3.96 1 -6 1 C-5.34 3.31 -4.68 5.62 -4 8 C-5.0725 8.309375 -6.145 8.61875 -7.25 8.9375 C-10.83688279 10.42172736 -11.9043921 12.16743998 -13.4375 15.6875 C-13.98208162 17.11617228 -14.51104188 18.55134767 -15 20 C-15.33 19.01 -15.66 18.02 -16 17 C-16.66 16.67 -17.32 16.34 -18 16 C-17.67 15.34 -17.34 14.68 -17 14 C-17.66 13.67 -18.32 13.34 -19 13 C-18.01 12.67 -17.02 12.34 -16 12 C-15.67 11.34 -15.34 10.68 -15 10 C-14.67 9.34 -14.34 8.68 -14 8 C-15.65 7.67 -17.3 7.34 -19 7 C-19.33 7.66 -19.66 8.32 -20 9 C-20.66 8.67 -21.32 8.34 -22 8 C-22.33 8.99 -22.66 9.98 -23 11 C-25.0625 11.6875 -25.0625 11.6875 -27 12 C-19.64416509 1.99029525 -12.33358153 -0.93910519 0 0 Z " fill="#292830" transform="translate(260,150)"/>
<path d="M0 0 C0.33 0.99 0.66 1.98 1 3 C2.32 2.34 3.64 1.68 5 1 C5.33 2.65 5.66 4.3 6 6 C7.32 6.33 8.64 6.66 10 7 C6.04889364 11.28737073 1.52887223 12.85142489 -4.19140625 13.1875 C-7.13376816 13.1875 -10.06082345 13.13226294 -13 13 C-13 12.67 -13 12.34 -13 12 C-8.545 11.505 -8.545 11.505 -4 11 C-3.67 9.68 -3.34 8.36 -3 7 C-4.98 7 -6.96 7 -9 7 C-8.67 6.01 -8.34 5.02 -8 4 C-7.05125 3.896875 -6.1025 3.79375 -5.125 3.6875 C-1.70892499 3.31460705 -1.70892499 3.31460705 0 0 Z " fill="#34333A" transform="translate(403,228)"/>
<path d="M0 0 C0 0.33 0 0.66 0 1 C-2.31 1.66 -4.62 2.32 -7 3 C-7 3.99 -7 4.98 -7 6 C-6.34 6.66 -5.68 7.32 -5 8 C-7.97 8.66 -10.94 9.32 -14 10 C-13.34 9.67 -12.68 9.34 -12 9 C-12 8.34 -12 7.68 -12 7 C-12.763125 6.71125 -13.52625 6.4225 -14.3125 6.125 C-17 5 -17 5 -20 3 C-13.19877155 -0.13902852 -7.43378943 -0.33452052 0 0 Z " fill="#37363E" transform="translate(400,150)"/>
<path d="M0 0 C0.33 0 0.66 0 1 0 C1.05406122 1.93719378 1.09282025 3.87481921 1.125 5.8125 C1.14820313 6.89144531 1.17140625 7.97039062 1.1953125 9.08203125 C1 12 1 12 -1 15 C-1.99 14.67 -2.98 14.34 -4 14 C-4.33 14.66 -4.66 15.32 -5 16 C-6.25664978 13.09399739 -7 11.20395416 -7 8 C-6.01 7.34 -5.02 6.68 -4 6 C-2.80767387 3.94996045 -2.80767387 3.94996045 -2 2 C-1.67 2.66 -1.34 3.32 -1 4 C-0.67 2.68 -0.34 1.36 0 0 Z " fill="#37353D" transform="translate(279,203)"/>
<path d="M0 0 C0.66 0.66 1.32 1.32 2 2 C4.57061311 2.64767793 4.57061311 2.64767793 7 3 C7 3.66 7 4.32 7 5 C7.66 5.33 8.32 5.66 9 6 C5.79619983 8.13586678 4.98060033 8.23132175 1.3125 8.125 C0.50425781 8.10695312 -0.30398438 8.08890625 -1.13671875 8.0703125 C-2.05904297 8.03550781 -2.05904297 8.03550781 -3 8 C-3.33 7.01 -3.66 6.02 -4 5 C-3.67 4.34 -3.34 3.68 -3 3 C-2.34 3 -1.68 3 -1 3 C-0.67 2.01 -0.34 1.02 0 0 Z " fill="#26252D" transform="translate(393,232)"/>
<path d="M0 0 C1.09054688 0.02320313 2.18109375 0.04640625 3.3046875 0.0703125 C4.40039062 0.08835938 5.49609375 0.10640625 6.625 0.125 C7.46804688 0.14820313 8.31109375 0.17140625 9.1796875 0.1953125 C9.1796875 0.5253125 9.1796875 0.8553125 9.1796875 1.1953125 C7.1996875 1.1953125 5.2196875 1.1953125 3.1796875 1.1953125 C3.8396875 3.5053125 4.4996875 5.8153125 5.1796875 8.1953125 C3.5296875 8.5253125 1.8796875 8.8553125 0.1796875 9.1953125 C-0.8828125 7.3203125 -0.8828125 7.3203125 -1.8203125 5.1953125 C-1.4903125 4.5353125 -1.1603125 3.8753125 -0.8203125 3.1953125 C-2.1403125 2.8653125 -3.4603125 2.5353125 -4.8203125 2.1953125 C-2.8203125 0.1953125 -2.8203125 0.1953125 0 0 Z " fill="#3F3E44" transform="translate(250.8203125,149.8046875)"/>
<path d="M0 0 C0.66 0.66 1.32 1.32 2 2 C2.99 1.34 3.98 0.68 5 0 C6.125 3.75 6.125 3.75 5 6 C7.97 6.495 7.97 6.495 11 7 C11.33 7.99 11.66 8.98 12 10 C5.61479646 9.84036991 2.33991635 6.21875117 -2 2 C-1.34 1.34 -0.68 0.68 0 0 Z " fill="#2C2B33" transform="translate(236,229)"/>
<path d="M0 0 C-0.33 0.66 -0.66 1.32 -1 2 C-0.34 2.66 0.32 3.32 1 4 C-3.625 6.125 -3.625 6.125 -7 5 C-10 3 -10 3 -11 1 C-3.375 -1.125 -3.375 -1.125 0 0 Z " fill="#292830" transform="translate(142,225)"/>
<path d="M0 0 C0.33 0 0.66 0 1 0 C1.07347656 1.01320312 1.07347656 1.01320312 1.1484375 2.046875 C1.22320312 2.93890625 1.29796875 3.8309375 1.375 4.75 C1.44460938 5.63171875 1.51421875 6.5134375 1.5859375 7.421875 C1.99850055 9.99066382 2.71160957 11.75841015 4 14 C4.99 14 5.98 14 7 14 C7 14.66 7 15.32 7 16 C3.04 16.495 3.04 16.495 -1 17 C-0.67 11.39 -0.34 5.78 0 0 Z " fill="#49484D" transform="translate(260,168)"/>
<path d="M0 0 C0.78375 0.04125 1.5675 0.0825 2.375 0.125 C2.045 1.115 1.715 2.105 1.375 3.125 C2.1513932 6.1995356 2.1513932 6.1995356 4.375 8.125 C1.075 7.465 -2.225 6.805 -5.625 6.125 C-4.965 5.795 -4.305 5.465 -3.625 5.125 C-3.955 4.135 -4.285 3.145 -4.625 2.125 C-2.625 0.125 -2.625 0.125 0 0 Z " fill="#24232B" transform="translate(396.625,150.875)"/>
<path d="M0 0 C-0.33 2.31 -0.66 4.62 -1 7 C-1.99 7.33 -2.98 7.66 -4 8 C-4.33 7.34 -4.66 6.68 -5 6 C-5.66 6 -6.32 6 -7 6 C-7.33 4.68 -7.66 3.36 -8 2 C-2.25 0 -2.25 0 0 0 Z " fill="#35343A" transform="translate(136,182)"/>
<path d="M0 0 C4.48148494 2.18018186 6.21849541 4.34829356 8 9 C7.67 9.66 7.34 10.32 7 11 C6.01 10.67 5.02 10.34 4 10 C4 8.68 4 7.36 4 6 C3.34 6 2.68 6 2 6 C0.375 3.5 0.375 3.5 -1 1 C-0.67 0.67 -0.34 0.34 0 0 Z M-2 3 C0 4 0 4 0 4 Z " fill="#323138" transform="translate(408,154)"/>
<path d="M0 0 C0.61875 0.78375 1.2375 1.5675 1.875 2.375 C3.89858661 4.96837647 3.89858661 4.96837647 6 7 C6 7.99 6 8.98 6 10 C4.125 10.625 4.125 10.625 2 11 C1.34 10.34 0.68 9.68 0 9 C0 6 0 3 0 0 Z " fill="#343339" transform="translate(246,225)"/>
<path d="M0 0 C2 3 2 3 2 6 C-5.26 6 -12.52 6 -20 6 C-19.67 5.01 -19.34 4.02 -19 3 C-19 3.66 -19 4.32 -19 5 C-13.06 4.67 -7.12 4.34 -1 4 C-0.67 2.68 -0.34 1.36 0 0 Z " fill="#5D5D61" transform="translate(362,238)"/>
<path d="M0 0 C2.5654594 2.5654594 2.54046087 4.47686668 3 8 C1.35 8.33 -0.3 8.66 -2 9 C-2.6875 6.75 -2.6875 6.75 -3 4 C-1.5625 1.6875 -1.5625 1.6875 0 0 Z " fill="#323139" transform="translate(180,169)"/>
<path d="M0 0 C0.33 0 0.66 0 1 0 C1.33 3.63 1.66 7.26 2 11 C2.99 11.33 3.98 11.66 5 12 C2.69 12.33 0.38 12.66 -2 13 C-1.34 8.71 -0.68 4.42 0 0 Z " fill="#3D3C42" transform="translate(290,229)"/>
<path d="M0 0 C0.99 0.33 1.98 0.66 3 1 C3.1953125 7.0546875 3.1953125 7.0546875 3 9 C2.34 9.66 1.68 10.32 1 11 C0 10 0 10 -0.09765625 7.71484375 C-0.08605469 6.79832031 -0.07445312 5.88179687 -0.0625 4.9375 C-0.05347656 4.01839844 -0.04445313 3.09929687 -0.03515625 2.15234375 C-0.02355469 1.44207031 -0.01195312 0.73179687 0 0 Z " fill="#25242B" transform="translate(467,175)"/>
<path d="M0 0 C3 1 3 1 4 3 C4.039992 4.99960012 4.04346799 7.00047242 4 9 C3.01 9 2.02 9 1 9 C-1.125 2.25 -1.125 2.25 0 0 Z " fill="#35343B" transform="translate(417,204)"/>
<path d="M0 0 C0.66 0 1.32 0 2 0 C3.4606285 2.64738916 4 3.89448334 4 7 C2.35 7 0.7 7 -1 7 C-0.67 4.69 -0.34 2.38 0 0 Z " fill="#302F36" transform="translate(464,232)"/>
<path d="M0 0 C1.134375 0.020625 2.26875 0.04125 3.4375 0.0625 C1.81410195 1.77134005 0.14430947 3.43696717 -1.5625 5.0625 C-2.2225 5.0625 -2.8825 5.0625 -3.5625 5.0625 C-4.125 3.125 -4.125 3.125 -4.5625 1.0625 C-3.5625 0.0625 -3.5625 0.0625 0 0 Z " fill="#3A3840" transform="translate(351.5625,144.9375)"/>
<path d="M0 0 C2.64 0 5.28 0 8 0 C8 0.66 8 1.32 8 2 C7.01 2 6.02 2 5 2 C4.67 2.66 4.34 3.32 4 4 C3.34 3.67 2.68 3.34 2 3 C1.67 3.66 1.34 4.32 1 5 C0.67 3.35 0.34 1.7 0 0 Z " fill="#36353B" transform="translate(384,212)"/>
<path d="M0 0 C1.31571603 0.2547514 2.62760376 0.52934141 3.9375 0.8125 C4.66839844 0.96332031 5.39929688 1.11414063 6.15234375 1.26953125 C6.76207031 1.51058594 7.37179688 1.75164062 8 2 C8.33 2.99 8.66 3.98 9 5 C5.26512223 4.5020163 3.18762365 4.12508244 0 2 C0 1.34 0 0.68 0 0 Z " fill="#38373F" transform="translate(239,234)"/>
<path d="M0 0 C-1.5625 1.5625 -1.5625 1.5625 -4 3 C-7.75 2.6875 -7.75 2.6875 -11 2 C-6.99642627 -0.14477164 -4.43233175 -1.47744392 0 0 Z " fill="#434248" transform="translate(142,225)"/>
<path d="M0 0 C1.32 0 2.64 0 4 0 C5.2077558 3.62326739 4.54311128 4.64146369 3 8 C2.67 7.01 2.34 6.02 2 5 C1.34 4.67 0.68 4.34 0 4 C0.33 3.34 0.66 2.68 1 2 C0.34 1.67 -0.32 1.34 -1 1 C-0.67 0.67 -0.34 0.34 0 0 Z " fill="#333238" transform="translate(242,162)"/>
<path d="M0 0 C0.66 0.99 1.32 1.98 2 3 C1.34 4.32 0.68 5.64 0 7 C0.66 7 1.32 7 2 7 C1.67 8.32 1.34 9.64 1 11 C1 10.34 1 9.68 1 9 C0.01 9.33 -0.98 9.66 -2 10 C-1.54177532 6.53058454 -1.10868317 3.32604951 0 0 Z " fill="#3F3E44" transform="translate(227,172)"/>
<path d="M0 0 C0.33 0.66 0.66 1.32 1 2 C0.67 2.66 0.34 3.32 0 4 C1.32 4.66 2.64 5.32 4 6 C1.69 6 -0.62 6 -3 6 C-2.42655063 3.13275314 -2.1385485 2.1385485 0 0 Z " fill="#3D3C42" transform="translate(402,173)"/>
<path d="M0 0 C0.33 0.99 0.66 1.98 1 3 C1.66 3 2.32 3 3 3 C3 2.34 3 1.68 3 1 C3.99 0.67 4.98 0.34 6 0 C6.66 0.66 7.32 1.32 8 2 C6.03533587 3.06775224 4.03144641 4.06553465 2 5 C1.34 4.67 0.68 4.34 0 4 C0 2.68 0 1.36 0 0 Z " fill="#36353C" transform="translate(353,165)"/>
<path d="M0 0 C0.66 0 1.32 0 2 0 C2 0.66 2 1.32 2 2 C2.66 2 3.32 2 4 2 C4 2.99 4 3.98 4 5 C2.02 5 0.04 5 -2 5 C-1.34 4.67 -0.68 4.34 0 4 C0 2.68 0 1.36 0 0 Z " fill="#34333B" transform="translate(332,235)"/>
<path d="M0 0 C0.66 0.33 1.32 0.66 2 1 C-2.82142857 7.29464286 -2.82142857 7.29464286 -7 8 C-6.02133662 6.85373678 -5.04205413 5.70800212 -4.0625 4.5625 C-3.51722656 3.92441406 -2.97195312 3.28632813 -2.41015625 2.62890625 C-1.63204305 1.73008851 -0.84063472 0.84063472 0 0 Z " fill="#313035" transform="translate(240,154)"/>
</svg>
